<svg xmlns="http://www.w3.org/2000/svg" xmlns:xlink="http://www.w3.org/1999/xlink" aria-hidden="true" role="img" class="iconify iconify--logos" width="31.88" height="32" preserveAspectRatio="xMidYMid meet" viewBox="0 0 256 257"><defs><linearGradient id="IconifyId1813088fe1f0d23032" x1="-0.114%" x2="100.611%" y1="0.107%" y2="100.214%"><stop offset="0%" stop-color="#41D1FF"></stop><stop offset="100%" stop-color="#BD34FE"></stop></linearGradient><linearGradient id="IconifyId1813088fe1f0d23033" x1="100%" x2="0%" y1="100%" y2="0%"><stop offset="0%" stop-color="#FFEA83"></stop><stop offset="8.333%" stop-color="#FFDD35"></stop><stop offset="100%" stop-color="#FFA800"></stop></linearGradient></defs><path fill="url(#IconifyId1813088fe1f0d23032)" d="M255.153 37.938L134.897 252.976c-2.483 4.44-8.862 4.466-11.382.048L.871 37.957a6.63 6.63 0 0 1 7.221-9.703L123.633 50.8a10.02 10.02 0 0 0 3.905-.005L247.913 28.243a6.63 6.63 0 0 1 7.24 9.695Z"></path><path fill="url(#IconifyId1813088fe1f0d23033)" d="M135.033 49.234L199.14 74.56a6.681 6.681 0 0 1 3.23 8.398L130.34 227.1a6.657 6.657 0 0 1-12.083-.024L51.34 82.909a6.68 6.68 0 0 1 3.23-8.39l63.948-25.282a10 10 0 0 1 16.515 0Z"></path></svg>
